# xmcd
#
# Track frame offsets:
#	150
#	24374
#	57857
#	59247
#	84604
#	109127
#	138310
#	185106
#	206172
#	206985
#	243060
#	276799
#	293414
#
# Disc length: 4487 seconds
#
# Revision: 1
# Processed by: cddbd v1.5.2PL0 Copyright (c) Steve Scherf et al.
# Submitted via: audiograbber 1.83.01
#
DISCID=c811850d
DTITLE=Sydney Ellis - Just Before Dawn
DYEAR=2011
DGENRE=Blues
TTITLE0=Jump For Joy
TTITLE1=Fishin' Trip
TTITLE2=Oh Yeah - part 1
TTITLE3=Stormy Monday Blues
TTITLE4=Trouble In Mind
TTITLE5=I Feel Like Breaking Up Somebody's Home
TTITLE6=Was It A Whisper?
TTITLE7=You Gotta Move
TTITLE8=Oh Yeah - part 2
TTITLE9=See Lyin' Woman
TTITLE10=Tired Of That
TTITLE11=Just Before Dawn
TTITLE12=I've Got My Mojo Working
EXTD=
EXTT0=
EXTT1=
EXTT2=
EXTT3=
EXTT4=
EXTT5=
EXTT6=
EXTT7=
EXTT8=
EXTT9=
EXTT10=
EXTT11=
EXTT12=
PLAYORDER=
